<?xml version="1.0" encoding="utf-8" standalone="no"?>
<!DOCTYPE svg PUBLIC "-//W3C//DTD SVG 1.1//EN"
  "http://www.w3.org/Graphics/SVG/1.1/DTD/svg11.dtd">
<svg height="360pt" version="1.1" viewBox="0 0 504 360" width="504pt" xmlns="http://www.w3.org/2000/svg" xmlns:xlink="http://www.w3.org/1999/xlink">
 <metadata>
  <rdf:RDF xmlns:cc="http://creativecommons.org/ns#" xmlns:dc="http://purl.org/dc/elements/1.1/" xmlns:rdf="http://www.w3.org/1999/02/22-rdf-syntax-ns#">
   <cc:Work>
    <dc:type rdf:resource="http://purl.org/dc/dcmitype/StillImage"/>
    <dc:date>2022-08-14T11:56:59.824455</dc:date>
    <dc:format>image/svg+xml</dc:format>
    <dc:creator>
     <cc:Agent>
      <dc:title>Matplotlib v3.4.3, https://matplotlib.org/</dc:title>
     </cc:Agent>
    </dc:creator>
   </cc:Work>
  </rdf:RDF>
 </metadata>
 <defs>
  <style type="text/css">*{stroke-linecap:butt;stroke-linejoin:round;}</style>
 </defs>
 <g id="figure_1">
  <g id="patch_1">
   <path d="M 0 360 
L 504 360 
L 504 0 
L 0 0 
z
" style="fill:#ffffff;"/>
  </g>
  <g id="axes_1">
   <g id="patch_2">
    <path d="M 63 320.4 
L 453.6 320.4 
L 453.6 43.2 
L 63 43.2 
z
" style="fill:#ffffff;"/>
   </g>
   <g id="matplotlib.axis_1">
    <g id="xtick_1">
     <g id="line2d_1">
      <path clip-path="url(#p5308ede232)" d="M 63 320.4 
L 63 43.2 
" style="fill:none;stroke:#b0b0b0;stroke-linecap:square;stroke-opacity:0.3;stroke-width:0.8;"/>
     </g>
     <g id="line2d_2">
      <defs>
       <path d="M 0 0 
L 0 3.5 
" id="m1c3c633e1a" style="stroke:#000000;stroke-width:0.8;"/>
      </defs>
      <g>
       <use style="stroke:#000000;stroke-width:0.8;" x="63" xlink:href="#m1c3c633e1a" y="320.4"/>
      </g>
     </g>
     <g id="text_1">
      <!-- 9 -->
      <g transform="translate(59.81875 334.998438)scale(0.1 -0.1)">
       <defs>
        <path d="M 703 97 
L 703 672 
Q 941 559 1184 500 
Q 1428 441 1663 441 
Q 2288 441 2617 861 
Q 2947 1281 2994 2138 
Q 2813 1869 2534 1725 
Q 2256 1581 1919 1581 
Q 1219 1581 811 2004 
Q 403 2428 403 3163 
Q 403 3881 828 4315 
Q 1253 4750 1959 4750 
Q 2769 4750 3195 4129 
Q 3622 3509 3622 2328 
Q 3622 1225 3098 567 
Q 2575 -91 1691 -91 
Q 1453 -91 1209 -44 
Q 966 3 703 97 
z
M 1959 2075 
Q 2384 2075 2632 2365 
Q 2881 2656 2881 3163 
Q 2881 3666 2632 3958 
Q 2384 4250 1959 4250 
Q 1534 4250 1286 3958 
Q 1038 3666 1038 3163 
Q 1038 2656 1286 2365 
Q 1534 2075 1959 2075 
z
" id="DejaVuSans-39" transform="scale(0.015625)"/>
       </defs>
       <use xlink:href="#DejaVuSans-39"/>
      </g>
     </g>
    </g>
    <g id="xtick_2">
     <g id="line2d_3">
      <path clip-path="url(#p5308ede232)" d="M 95.55 320.4 
L 95.55 43.2 
" style="fill:none;stroke:#b0b0b0;stroke-linecap:square;stroke-opacity:0.3;stroke-width:0.8;"/>
     </g>
     <g id="line2d_4">
      <g>
       <use style="stroke:#000000;stroke-width:0.8;" x="95.55" xlink:href="#m1c3c633e1a" y="320.4"/>
      </g>
     </g>
     <g id="text_2">
      <!-- 10 -->
      <g transform="translate(89.1875 334.998438)scale(0.1 -0.1)">
       <defs>
        <path d="M 794 531 
L 1825 531 
L 1825 4091 
L 703 3866 
L 703 4441 
L 1819 4666 
L 2450 4666 
L 2450 531 
L 3481 531 
L 3481 0 
L 794 0 
L 794 531 
z
" id="DejaVuSans-31" transform="scale(0.015625)"/>
        <path d="M 2034 4250 
Q 1547 4250 1301 3770 
Q 1056 3291 1056 2328 
Q 1056 1369 1301 889 
Q 1547 409 2034 409 
Q 2525 409 2770 889 
Q 3016 1369 3016 2328 
Q 3016 3291 2770 3770 
Q 2525 4250 2034 4250 
z
M 2034 4750 
Q 2819 4750 3233 4129 
Q 3647 3509 3647 2328 
Q 3647 1150 3233 529 
Q 2819 -91 2034 -91 
Q 1250 -91 836 529 
Q 422 1150 422 2328 
Q 422 3509 836 4129 
Q 1250 4750 2034 4750 
z
" id="DejaVuSans-30" transform="scale(0.015625)"/>
       </defs>
       <use xlink:href="#DejaVuSans-31"/>
       <use x="63.623047" xlink:href="#DejaVuSans-30"/>
      </g>
     </g>
    </g>
    <g id="xtick_3">
     <g id="line2d_5">
      <path clip-path="url(#p5308ede232)" d="M 128.1 320.4 
L 128.1 43.2 
" style="fill:none;stroke:#b0b0b0;stroke-linecap:square;stroke-opacity:0.3;stroke-width:0.8;"/>
     </g>
     <g id="line2d_6">
      <g>
       <use style="stroke:#000000;stroke-width:0.8;" x="128.1" xlink:href="#m1c3c633e1a" y="320.4"/>
      </g>
     </g>
     <g id="text_3">
      <!-- 11 -->
      <g transform="translate(121.7375 334.998438)scale(0.1 -0.1)">
       <use xlink:href="#DejaVuSans-31"/>
       <use x="63.623047" xlink:href="#DejaVuSans-31"/>
      </g>
     </g>
    </g>
    <g id="xtick_4">
     <g id="line2d_7">
      <path clip-path="url(#p5308ede232)" d="M 160.65 320.4 
L 160.65 43.2 
" style="fill:none;stroke:#b0b0b0;stroke-linecap:square;stroke-opacity:0.3;stroke-width:0.8;"/>
     </g>
     <g id="line2d_8">
      <g>
       <use style="stroke:#000000;stroke-width:0.8;" x="160.65" xlink:href="#m1c3c633e1a" y="320.4"/>
      </g>
     </g>
     <g id="text_4">
      <!-- 12 -->
      <g transform="translate(154.2875 334.998438)scale(0.1 -0.1)">
       <defs>
        <path d="M 1228 531 
L 3431 531 
L 3431 0 
L 469 0 
L 469 531 
Q 828 903 1448 1529 
Q 2069 2156 2228 2338 
Q 2531 2678 2651 2914 
Q 2772 3150 2772 3378 
Q 2772 3750 2511 3984 
Q 2250 4219 1831 4219 
Q 1534 4219 1204 4116 
Q 875 4013 500 3803 
L 500 4441 
Q 881 4594 1212 4672 
Q 1544 4750 1819 4750 
Q 2544 4750 2975 4387 
Q 3406 4025 3406 3419 
Q 3406 3131 3298 2873 
Q 3191 2616 2906 2266 
Q 2828 2175 2409 1742 
Q 1991 1309 1228 531 
z
" id="DejaVuSans-32" transform="scale(0.015625)"/>
       </defs>
       <use xlink:href="#DejaVuSans-31"/>
       <use x="63.623047" xlink:href="#DejaVuSans-32"/>
      </g>
     </g>
    </g>
    <g id="xtick_5">
     <g id="line2d_9">
      <path clip-path="url(#p5308ede232)" d="M 193.2 320.4 
L 193.2 43.2 
" style="fill:none;stroke:#b0b0b0;stroke-linecap:square;stroke-opacity:0.3;stroke-width:0.8;"/>
     </g>
     <g id="line2d_10">
      <g>
       <use style="stroke:#000000;stroke-width:0.8;" x="193.2" xlink:href="#m1c3c633e1a" y="320.4"/>
      </g>
     </g>
     <g id="text_5">
      <!-- 13 -->
      <g transform="translate(186.8375 334.998438)scale(0.1 -0.1)">
       <defs>
        <path d="M 2597 2516 
Q 3050 2419 3304 2112 
Q 3559 1806 3559 1356 
Q 3559 666 3084 287 
Q 2609 -91 1734 -91 
Q 1441 -91 1130 -33 
Q 819 25 488 141 
L 488 750 
Q 750 597 1062 519 
Q 1375 441 1716 441 
Q 2309 441 2620 675 
Q 2931 909 2931 1356 
Q 2931 1769 2642 2001 
Q 2353 2234 1838 2234 
L 1294 2234 
L 1294 2753 
L 1863 2753 
Q 2328 2753 2575 2939 
Q 2822 3125 2822 3475 
Q 2822 3834 2567 4026 
Q 2313 4219 1838 4219 
Q 1578 4219 1281 4162 
Q 984 4106 628 3988 
L 628 4550 
Q 988 4650 1302 4700 
Q 1616 4750 1894 4750 
Q 2613 4750 3031 4423 
Q 3450 4097 3450 3541 
Q 3450 3153 3228 2886 
Q 3006 2619 2597 2516 
z
" id="DejaVuSans-33" transform="scale(0.015625)"/>
       </defs>
       <use xlink:href="#DejaVuSans-31"/>
       <use x="63.623047" xlink:href="#DejaVuSans-33"/>
      </g>
     </g>
    </g>
    <g id="xtick_6">
     <g id="line2d_11">
      <path clip-path="url(#p5308ede232)" d="M 225.75 320.4 
L 225.75 43.2 
" style="fill:none;stroke:#b0b0b0;stroke-linecap:square;stroke-opacity:0.3;stroke-width:0.8;"/>
     </g>
     <g id="line2d_12">
      <g>
       <use style="stroke:#000000;stroke-width:0.8;" x="225.75" xlink:href="#m1c3c633e1a" y="320.4"/>
      </g>
     </g>
     <g id="text_6">
      <!-- 14 -->
      <g transform="translate(219.3875 334.998438)scale(0.1 -0.1)">
       <defs>
        <path d="M 2419 4116 
L 825 1625 
L 2419 1625 
L 2419 4116 
z
M 2253 4666 
L 3047 4666 
L 3047 1625 
L 3713 1625 
L 3713 1100 
L 3047 1100 
L 3047 0 
L 2419 0 
L 2419 1100 
L 313 1100 
L 313 1709 
L 2253 4666 
z
" id="DejaVuSans-34" transform="scale(0.015625)"/>
       </defs>
       <use xlink:href="#DejaVuSans-31"/>
       <use x="63.623047" xlink:href="#DejaVuSans-34"/>
      </g>
     </g>
    </g>
    <g id="xtick_7">
     <g id="line2d_13">
      <path clip-path="url(#p5308ede232)" d="M 258.3 320.4 
L 258.3 43.2 
" style="fill:none;stroke:#b0b0b0;stroke-linecap:square;stroke-opacity:0.3;stroke-width:0.8;"/>
     </g>
     <g id="line2d_14">
      <g>
       <use style="stroke:#000000;stroke-width:0.8;" x="258.3" xlink:href="#m1c3c633e1a" y="320.4"/>
      </g>
     </g>
     <g id="text_7">
      <!-- 15 -->
      <g transform="translate(251.9375 334.998438)scale(0.1 -0.1)">
       <defs>
        <path d="M 691 4666 
L 3169 4666 
L 3169 4134 
L 1269 4134 
L 1269 2991 
Q 1406 3038 1543 3061 
Q 1681 3084 1819 3084 
Q 2600 3084 3056 2656 
Q 3513 2228 3513 1497 
Q 3513 744 3044 326 
Q 2575 -91 1722 -91 
Q 1428 -91 1123 -41 
Q 819 9 494 109 
L 494 744 
Q 775 591 1075 516 
Q 1375 441 1709 441 
Q 2250 441 2565 725 
Q 2881 1009 2881 1497 
Q 2881 1984 2565 2268 
Q 2250 2553 1709 2553 
Q 1456 2553 1204 2497 
Q 953 2441 691 2322 
L 691 4666 
z
" id="DejaVuSans-35" transform="scale(0.015625)"/>
       </defs>
       <use xlink:href="#DejaVuSans-31"/>
       <use x="63.623047" xlink:href="#DejaVuSans-35"/>
      </g>
     </g>
    </g>
    <g id="xtick_8">
     <g id="line2d_15">
      <path clip-path="url(#p5308ede232)" d="M 290.85 320.4 
L 290.85 43.2 
" style="fill:none;stroke:#b0b0b0;stroke-linecap:square;stroke-opacity:0.3;stroke-width:0.8;"/>
     </g>
     <g id="line2d_16">
      <g>
       <use style="stroke:#000000;stroke-width:0.8;" x="290.85" xlink:href="#m1c3c633e1a" y="320.4"/>
      </g>
     </g>
     <g id="text_8">
      <!-- 16 -->
      <g transform="translate(284.4875 334.998438)scale(0.1 -0.1)">
       <defs>
        <path d="M 2113 2584 
Q 1688 2584 1439 2293 
Q 1191 2003 1191 1497 
Q 1191 994 1439 701 
Q 1688 409 2113 409 
Q 2538 409 2786 701 
Q 3034 994 3034 1497 
Q 3034 2003 2786 2293 
Q 2538 2584 2113 2584 
z
M 3366 4563 
L 3366 3988 
Q 3128 4100 2886 4159 
Q 2644 4219 2406 4219 
Q 1781 4219 1451 3797 
Q 1122 3375 1075 2522 
Q 1259 2794 1537 2939 
Q 1816 3084 2150 3084 
Q 2853 3084 3261 2657 
Q 3669 2231 3669 1497 
Q 3669 778 3244 343 
Q 2819 -91 2113 -91 
Q 1303 -91 875 529 
Q 447 1150 447 2328 
Q 447 3434 972 4092 
Q 1497 4750 2381 4750 
Q 2619 4750 2861 4703 
Q 3103 4656 3366 4563 
z
" id="DejaVuSans-36" transform="scale(0.015625)"/>
       </defs>
       <use xlink:href="#DejaVuSans-31"/>
       <use x="63.623047" xlink:href="#DejaVuSans-36"/>
      </g>
     </g>
    </g>
    <g id="xtick_9">
     <g id="line2d_17">
      <path clip-path="url(#p5308ede232)" d="M 323.4 320.4 
L 323.4 43.2 
" style="fill:none;stroke:#b0b0b0;stroke-linecap:square;stroke-opacity:0.3;stroke-width:0.8;"/>
     </g>
     <g id="line2d_18">
      <g>
       <use style="stroke:#000000;stroke-width:0.8;" x="323.4" xlink:href="#m1c3c633e1a" y="320.4"/>
      </g>
     </g>
     <g id="text_9">
      <!-- 17 -->
      <g transform="translate(317.0375 334.998438)scale(0.1 -0.1)">
       <defs>
        <path d="M 525 4666 
L 3525 4666 
L 3525 4397 
L 1831 0 
L 1172 0 
L 2766 4134 
L 525 4134 
L 525 4666 
z
" id="DejaVuSans-37" transform="scale(0.015625)"/>
       </defs>
       <use xlink:href="#DejaVuSans-31"/>
       <use x="63.623047" xlink:href="#DejaVuSans-37"/>
      </g>
     </g>
    </g>
    <g id="xtick_10">
     <g id="line2d_19">
      <path clip-path="url(#p5308ede232)" d="M 355.95 320.4 
L 355.95 43.2 
" style="fill:none;stroke:#b0b0b0;stroke-linecap:square;stroke-opacity:0.3;stroke-width:0.8;"/>
     </g>
     <g id="line2d_20">
      <g>
       <use style="stroke:#000000;stroke-width:0.8;" x="355.95" xlink:href="#m1c3c633e1a" y="320.4"/>
      </g>
     </g>
     <g id="text_10">
      <!-- 18 -->
      <g transform="translate(349.5875 334.998438)scale(0.1 -0.1)">
       <defs>
        <path d="M 2034 2216 
Q 1584 2216 1326 1975 
Q 1069 1734 1069 1313 
Q 1069 891 1326 650 
Q 1584 409 2034 409 
Q 2484 409 2743 651 
Q 3003 894 3003 1313 
Q 3003 1734 2745 1975 
Q 2488 2216 2034 2216 
z
M 1403 2484 
Q 997 2584 770 2862 
Q 544 3141 544 3541 
Q 544 4100 942 4425 
Q 1341 4750 2034 4750 
Q 2731 4750 3128 4425 
Q 3525 4100 3525 3541 
Q 3525 3141 3298 2862 
Q 3072 2584 2669 2484 
Q 3125 2378 3379 2068 
Q 3634 1759 3634 1313 
Q 3634 634 3220 271 
Q 2806 -91 2034 -91 
Q 1263 -91 848 271 
Q 434 634 434 1313 
Q 434 1759 690 2068 
Q 947 2378 1403 2484 
z
M 1172 3481 
Q 1172 3119 1398 2916 
Q 1625 2713 2034 2713 
Q 2441 2713 2670 2916 
Q 2900 3119 2900 3481 
Q 2900 3844 2670 4047 
Q 2441 4250 2034 4250 
Q 1625 4250 1398 4047 
Q 1172 3844 1172 3481 
z
" id="DejaVuSans-38" transform="scale(0.015625)"/>
       </defs>
       <use xlink:href="#DejaVuSans-31"/>
       <use x="63.623047" xlink:href="#DejaVuSans-38"/>
      </g>
     </g>
    </g>
    <g id="xtick_11">
     <g id="line2d_21">
      <path clip-path="url(#p5308ede232)" d="M 388.5 320.4 
L 388.5 43.2 
" style="fill:none;stroke:#b0b0b0;stroke-linecap:square;stroke-opacity:0.3;stroke-width:0.8;"/>
     </g>
     <g id="line2d_22">
      <g>
       <use style="stroke:#000000;stroke-width:0.8;" x="388.5" xlink:href="#m1c3c633e1a" y="320.4"/>
      </g>
     </g>
     <g id="text_11">
      <!-- 19 -->
      <g transform="translate(382.1375 334.998438)scale(0.1 -0.1)">
       <use xlink:href="#DejaVuSans-31"/>
       <use x="63.623047" xlink:href="#DejaVuSans-39"/>
      </g>
     </g>
    </g>
    <g id="xtick_12">
     <g id="line2d_23">
      <path clip-path="url(#p5308ede232)" d="M 421.05 320.4 
L 421.05 43.2 
" style="fill:none;stroke:#b0b0b0;stroke-linecap:square;stroke-opacity:0.3;stroke-width:0.8;"/>
     </g>
     <g id="line2d_24">
      <g>
       <use style="stroke:#000000;stroke-width:0.8;" x="421.05" xlink:href="#m1c3c633e1a" y="320.4"/>
      </g>
     </g>
     <g id="text_12">
      <!-- 20 -->
      <g transform="translate(414.6875 334.998438)scale(0.1 -0.1)">
       <use xlink:href="#DejaVuSans-32"/>
       <use x="63.623047" xlink:href="#DejaVuSans-30"/>
      </g>
     </g>
    </g>
    <g id="xtick_13">
     <g id="line2d_25">
      <path clip-path="url(#p5308ede232)" d="M 453.6 320.4 
L 453.6 43.2 
" style="fill:none;stroke:#b0b0b0;stroke-linecap:square;stroke-opacity:0.3;stroke-width:0.8;"/>
     </g>
     <g id="line2d_26">
      <g>
       <use style="stroke:#000000;stroke-width:0.8;" x="453.6" xlink:href="#m1c3c633e1a" y="320.4"/>
      </g>
     </g>
     <g id="text_13">
      <!-- 21 -->
      <g transform="translate(447.2375 334.998438)scale(0.1 -0.1)">
       <use xlink:href="#DejaVuSans-32"/>
       <use x="63.623047" xlink:href="#DejaVuSans-31"/>
      </g>
     </g>
    </g>
    <g id="text_14">
     <!-- Network Size -->
     <g transform="translate(225.570312 348.676562)scale(0.1 -0.1)">
      <defs>
       <path d="M 628 4666 
L 1478 4666 
L 3547 763 
L 3547 4666 
L 4159 4666 
L 4159 0 
L 3309 0 
L 1241 3903 
L 1241 0 
L 628 0 
L 628 4666 
z
" id="DejaVuSans-4e" transform="scale(0.015625)"/>
       <path d="M 3597 1894 
L 3597 1613 
L 953 1613 
Q 991 1019 1311 708 
Q 1631 397 2203 397 
Q 2534 397 2845 478 
Q 3156 559 3463 722 
L 3463 178 
Q 3153 47 2828 -22 
Q 2503 -91 2169 -91 
Q 1331 -91 842 396 
Q 353 884 353 1716 
Q 353 2575 817 3079 
Q 1281 3584 2069 3584 
Q 2775 3584 3186 3129 
Q 3597 2675 3597 1894 
z
M 3022 2063 
Q 3016 2534 2758 2815 
Q 2500 3097 2075 3097 
Q 1594 3097 1305 2825 
Q 1016 2553 972 2059 
L 3022 2063 
z
" id="DejaVuSans-65" transform="scale(0.015625)"/>
       <path d="M 1172 4494 
L 1172 3500 
L 2356 3500 
L 2356 3053 
L 1172 3053 
L 1172 1153 
Q 1172 725 1289 603 
Q 1406 481 1766 481 
L 2356 481 
L 2356 0 
L 1766 0 
Q 1100 0 847 248 
Q 594 497 594 1153 
L 594 3053 
L 172 3053 
L 172 3500 
L 594 3500 
L 594 4494 
L 1172 4494 
z
" id="DejaVuSans-74" transform="scale(0.015625)"/>
       <path d="M 269 3500 
L 844 3500 
L 1563 769 
L 2278 3500 
L 2956 3500 
L 3675 769 
L 4391 3500 
L 4966 3500 
L 4050 0 
L 3372 0 
L 2619 2869 
L 1863 0 
L 1184 0 
L 269 3500 
z
" id="DejaVuSans-77" transform="scale(0.015625)"/>
       <path d="M 1959 3097 
Q 1497 3097 1228 2736 
Q 959 2375 959 1747 
Q 959 1119 1226 758 
Q 1494 397 1959 397 
Q 2419 397 2687 759 
Q 2956 1122 2956 1747 
Q 2956 2369 2687 2733 
Q 2419 3097 1959 3097 
z
M 1959 3584 
Q 2709 3584 3137 3096 
Q 3566 2609 3566 1747 
Q 3566 888 3137 398 
Q 2709 -91 1959 -91 
Q 1206 -91 779 398 
Q 353 888 353 1747 
Q 353 2609 779 3096 
Q 1206 3584 1959 3584 
z
" id="DejaVuSans-6f" transform="scale(0.015625)"/>
       <path d="M 2631 2963 
Q 2534 3019 2420 3045 
Q 2306 3072 2169 3072 
Q 1681 3072 1420 2755 
Q 1159 2438 1159 1844 
L 1159 0 
L 581 0 
L 581 3500 
L 1159 3500 
L 1159 2956 
Q 1341 3275 1631 3429 
Q 1922 3584 2338 3584 
Q 2397 3584 2469 3576 
Q 2541 3569 2628 3553 
L 2631 2963 
z
" id="DejaVuSans-72" transform="scale(0.015625)"/>
       <path d="M 581 4863 
L 1159 4863 
L 1159 1991 
L 2875 3500 
L 3609 3500 
L 1753 1863 
L 3688 0 
L 2938 0 
L 1159 1709 
L 1159 0 
L 581 0 
L 581 4863 
z
" id="DejaVuSans-6b" transform="scale(0.015625)"/>
       <path id="DejaVuSans-20" transform="scale(0.015625)"/>
       <path d="M 3425 4513 
L 3425 3897 
Q 3066 4069 2747 4153 
Q 2428 4238 2131 4238 
Q 1616 4238 1336 4038 
Q 1056 3838 1056 3469 
Q 1056 3159 1242 3001 
Q 1428 2844 1947 2747 
L 2328 2669 
Q 3034 2534 3370 2195 
Q 3706 1856 3706 1288 
Q 3706 609 3251 259 
Q 2797 -91 1919 -91 
Q 1588 -91 1214 -16 
Q 841 59 441 206 
L 441 856 
Q 825 641 1194 531 
Q 1563 422 1919 422 
Q 2459 422 2753 634 
Q 3047 847 3047 1241 
Q 3047 1584 2836 1778 
Q 2625 1972 2144 2069 
L 1759 2144 
Q 1053 2284 737 2584 
Q 422 2884 422 3419 
Q 422 4038 858 4394 
Q 1294 4750 2059 4750 
Q 2388 4750 2728 4690 
Q 3069 4631 3425 4513 
z
" id="DejaVuSans-53" transform="scale(0.015625)"/>
       <path d="M 603 3500 
L 1178 3500 
L 1178 0 
L 603 0 
L 603 3500 
z
M 603 4863 
L 1178 4863 
L 1178 4134 
L 603 4134 
L 603 4863 
z
" id="DejaVuSans-69" transform="scale(0.015625)"/>
       <path d="M 353 3500 
L 3084 3500 
L 3084 2975 
L 922 459 
L 3084 459 
L 3084 0 
L 275 0 
L 275 525 
L 2438 3041 
L 353 3041 
L 353 3500 
z
" id="DejaVuSans-7a" transform="scale(0.015625)"/>
      </defs>
      <use xlink:href="#DejaVuSans-4e"/>
      <use x="74.804688" xlink:href="#DejaVuSans-65"/>
      <use x="136.328125" xlink:href="#DejaVuSans-74"/>
      <use x="175.537109" xlink:href="#DejaVuSans-77"/>
      <use x="257.324219" xlink:href="#DejaVuSans-6f"/>
      <use x="318.505859" xlink:href="#DejaVuSans-72"/>
      <use x="359.619141" xlink:href="#DejaVuSans-6b"/>
      <use x="417.529297" xlink:href="#DejaVuSans-20"/>
      <use x="449.316406" xlink:href="#DejaVuSans-53"/>
      <use x="512.792969" xlink:href="#DejaVuSans-69"/>
      <use x="540.576172" xlink:href="#DejaVuSans-7a"/>
      <use x="593.066406" xlink:href="#DejaVuSans-65"/>
     </g>
    </g>
   </g>
   <g id="matplotlib.axis_2">
    <g id="ytick_1">
     <g id="line2d_27">
      <path clip-path="url(#p5308ede232)" d="M 63 320.075072 
L 453.6 320.075072 
" style="fill:none;stroke:#b0b0b0;stroke-linecap:square;stroke-opacity:0.3;stroke-width:0.8;"/>
     </g>
     <g id="line2d_28">
      <defs>
       <path d="M 0 0 
L -3.5 0 
" id="m03d8b493f0" style="stroke:#000000;stroke-width:0.8;"/>
      </defs>
      <g>
       <use style="stroke:#000000;stroke-width:0.8;" x="63" xlink:href="#m03d8b493f0" y="320.075072"/>
      </g>
     </g>
     <g id="text_15">
      <!-- 0 -->
      <g transform="translate(49.6375 323.87429)scale(0.1 -0.1)">
       <use xlink:href="#DejaVuSans-30"/>
      </g>
     </g>
    </g>
    <g id="ytick_2">
     <g id="line2d_29">
      <path clip-path="url(#p5308ede232)" d="M 63 283.97192 
L 453.6 283.97192 
" style="fill:none;stroke:#b0b0b0;stroke-linecap:square;stroke-opacity:0.3;stroke-width:0.8;"/>
     </g>
     <g id="line2d_30">
      <g>
       <use style="stroke:#000000;stroke-width:0.8;" x="63" xlink:href="#m03d8b493f0" y="283.97192"/>
      </g>
     </g>
     <g id="text_16">
      <!-- 50 -->
      <g transform="translate(43.275 287.771139)scale(0.1 -0.1)">
       <use xlink:href="#DejaVuSans-35"/>
       <use x="63.623047" xlink:href="#DejaVuSans-30"/>
      </g>
     </g>
    </g>
    <g id="ytick_3">
     <g id="line2d_31">
      <path clip-path="url(#p5308ede232)" d="M 63 247.868768 
L 453.6 247.868768 
" style="fill:none;stroke:#b0b0b0;stroke-linecap:square;stroke-opacity:0.3;stroke-width:0.8;"/>
     </g>
     <g id="line2d_32">
      <g>
       <use style="stroke:#000000;stroke-width:0.8;" x="63" xlink:href="#m03d8b493f0" y="247.868768"/>
      </g>
     </g>
     <g id="text_17">
      <!-- 100 -->
      <g transform="translate(36.9125 251.667987)scale(0.1 -0.1)">
       <use xlink:href="#DejaVuSans-31"/>
       <use x="63.623047" xlink:href="#DejaVuSans-30"/>
       <use x="127.246094" xlink:href="#DejaVuSans-30"/>
      </g>
     </g>
    </g>
    <g id="ytick_4">
     <g id="line2d_33">
      <path clip-path="url(#p5308ede232)" d="M 63 211.765616 
L 453.6 211.765616 
" style="fill:none;stroke:#b0b0b0;stroke-linecap:square;stroke-opacity:0.3;stroke-width:0.8;"/>
     </g>
     <g id="line2d_34">
      <g>
       <use style="stroke:#000000;stroke-width:0.8;" x="63" xlink:href="#m03d8b493f0" y="211.765616"/>
      </g>
     </g>
     <g id="text_18">
      <!-- 150 -->
      <g transform="translate(36.9125 215.564835)scale(0.1 -0.1)">
       <use xlink:href="#DejaVuSans-31"/>
       <use x="63.623047" xlink:href="#DejaVuSans-35"/>
       <use x="127.246094" xlink:href="#DejaVuSans-30"/>
      </g>
     </g>
    </g>
    <g id="ytick_5">
     <g id="line2d_35">
      <path clip-path="url(#p5308ede232)" d="M 63 175.662464 
L 453.6 175.662464 
" style="fill:none;stroke:#b0b0b0;stroke-linecap:square;stroke-opacity:0.3;stroke-width:0.8;"/>
     </g>
     <g id="line2d_36">
      <g>
       <use style="stroke:#000000;stroke-width:0.8;" x="63" xlink:href="#m03d8b493f0" y="175.662464"/>
      </g>
     </g>
     <g id="text_19">
      <!-- 200 -->
      <g transform="translate(36.9125 179.461683)scale(0.1 -0.1)">
       <use xlink:href="#DejaVuSans-32"/>
       <use x="63.623047" xlink:href="#DejaVuSans-30"/>
       <use x="127.246094" xlink:href="#DejaVuSans-30"/>
      </g>
     </g>
    </g>
    <g id="ytick_6">
     <g id="line2d_37">
      <path clip-path="url(#p5308ede232)" d="M 63 139.559312 
L 453.6 139.559312 
" style="fill:none;stroke:#b0b0b0;stroke-linecap:square;stroke-opacity:0.3;stroke-width:0.8;"/>
     </g>
     <g id="line2d_38">
      <g>
       <use style="stroke:#000000;stroke-width:0.8;" x="63" xlink:href="#m03d8b493f0" y="139.559312"/>
      </g>
     </g>
     <g id="text_20">
      <!-- 250 -->
      <g transform="translate(36.9125 143.358531)scale(0.1 -0.1)">
       <use xlink:href="#DejaVuSans-32"/>
       <use x="63.623047" xlink:href="#DejaVuSans-35"/>
       <use x="127.246094" xlink:href="#DejaVuSans-30"/>
      </g>
     </g>
    </g>
    <g id="ytick_7">
     <g id="line2d_39">
      <path clip-path="url(#p5308ede232)" d="M 63 103.45616 
L 453.6 103.45616 
" style="fill:none;stroke:#b0b0b0;stroke-linecap:square;stroke-opacity:0.3;stroke-width:0.8;"/>
     </g>
     <g id="line2d_40">
      <g>
       <use style="stroke:#000000;stroke-width:0.8;" x="63" xlink:href="#m03d8b493f0" y="103.45616"/>
      </g>
     </g>
     <g id="text_21">
      <!-- 300 -->
      <g transform="translate(36.9125 107.255379)scale(0.1 -0.1)">
       <use xlink:href="#DejaVuSans-33"/>
       <use x="63.623047" xlink:href="#DejaVuSans-30"/>
       <use x="127.246094" xlink:href="#DejaVuSans-30"/>
      </g>
     </g>
    </g>
    <g id="ytick_8">
     <g id="line2d_41">
      <path clip-path="url(#p5308ede232)" d="M 63 67.353009 
L 453.6 67.353009 
" style="fill:none;stroke:#b0b0b0;stroke-linecap:square;stroke-opacity:0.3;stroke-width:0.8;"/>
     </g>
     <g id="line2d_42">
      <g>
       <use style="stroke:#000000;stroke-width:0.8;" x="63" xlink:href="#m03d8b493f0" y="67.353009"/>
      </g>
     </g>
     <g id="text_22">
      <!-- 350 -->
      <g transform="translate(36.9125 71.152227)scale(0.1 -0.1)">
       <use xlink:href="#DejaVuSans-33"/>
       <use x="63.623047" xlink:href="#DejaVuSans-35"/>
       <use x="127.246094" xlink:href="#DejaVuSans-30"/>
      </g>
     </g>
    </g>
    <g id="text_23">
     <!-- Num. Sup. Requests -->
     <g transform="translate(30.832812 232.367969)rotate(-90)scale(0.1 -0.1)">
      <defs>
       <path d="M 544 1381 
L 544 3500 
L 1119 3500 
L 1119 1403 
Q 1119 906 1312 657 
Q 1506 409 1894 409 
Q 2359 409 2629 706 
Q 2900 1003 2900 1516 
L 2900 3500 
L 3475 3500 
L 3475 0 
L 2900 0 
L 2900 538 
Q 2691 219 2414 64 
Q 2138 -91 1772 -91 
Q 1169 -91 856 284 
Q 544 659 544 1381 
z
M 1991 3584 
L 1991 3584 
z
" id="DejaVuSans-75" transform="scale(0.015625)"/>
       <path d="M 3328 2828 
Q 3544 3216 3844 3400 
Q 4144 3584 4550 3584 
Q 5097 3584 5394 3201 
Q 5691 2819 5691 2113 
L 5691 0 
L 5113 0 
L 5113 2094 
Q 5113 2597 4934 2840 
Q 4756 3084 4391 3084 
Q 3944 3084 3684 2787 
Q 3425 2491 3425 1978 
L 3425 0 
L 2847 0 
L 2847 2094 
Q 2847 2600 2669 2842 
Q 2491 3084 2119 3084 
Q 1678 3084 1418 2786 
Q 1159 2488 1159 1978 
L 1159 0 
L 581 0 
L 581 3500 
L 1159 3500 
L 1159 2956 
Q 1356 3278 1631 3431 
Q 1906 3584 2284 3584 
Q 2666 3584 2933 3390 
Q 3200 3197 3328 2828 
z
" id="DejaVuSans-6d" transform="scale(0.015625)"/>
       <path d="M 684 794 
L 1344 794 
L 1344 0 
L 684 0 
L 684 794 
z
" id="DejaVuSans-2e" transform="scale(0.015625)"/>
       <path d="M 1159 525 
L 1159 -1331 
L 581 -1331 
L 581 3500 
L 1159 3500 
L 1159 2969 
Q 1341 3281 1617 3432 
Q 1894 3584 2278 3584 
Q 2916 3584 3314 3078 
Q 3713 2572 3713 1747 
Q 3713 922 3314 415 
Q 2916 -91 2278 -91 
Q 1894 -91 1617 61 
Q 1341 213 1159 525 
z
M 3116 1747 
Q 3116 2381 2855 2742 
Q 2594 3103 2138 3103 
Q 1681 3103 1420 2742 
Q 1159 2381 1159 1747 
Q 1159 1113 1420 752 
Q 1681 391 2138 391 
Q 2594 391 2855 752 
Q 3116 1113 3116 1747 
z
" id="DejaVuSans-70" transform="scale(0.015625)"/>
       <path d="M 2841 2188 
Q 3044 2119 3236 1894 
Q 3428 1669 3622 1275 
L 4263 0 
L 3584 0 
L 2988 1197 
Q 2756 1666 2539 1819 
Q 2322 1972 1947 1972 
L 1259 1972 
L 1259 0 
L 628 0 
L 628 4666 
L 2053 4666 
Q 2853 4666 3247 4331 
Q 3641 3997 3641 3322 
Q 3641 2881 3436 2590 
Q 3231 2300 2841 2188 
z
M 1259 4147 
L 1259 2491 
L 2053 2491 
Q 2509 2491 2742 2702 
Q 2975 2913 2975 3322 
Q 2975 3731 2742 3939 
Q 2509 4147 2053 4147 
L 1259 4147 
z
" id="DejaVuSans-52" transform="scale(0.015625)"/>
       <path d="M 947 1747 
Q 947 1113 1208 752 
Q 1469 391 1925 391 
Q 2381 391 2643 752 
Q 2906 1113 2906 1747 
Q 2906 2381 2643 2742 
Q 2381 3103 1925 3103 
Q 1469 3103 1208 2742 
Q 947 2381 947 1747 
z
M 2906 525 
Q 2725 213 2448 61 
Q 2172 -91 1784 -91 
Q 1150 -91 751 415 
Q 353 922 353 1747 
Q 353 2572 751 3078 
Q 1150 3584 1784 3584 
Q 2172 3584 2448 3432 
Q 2725 3281 2906 2969 
L 2906 3500 
L 3481 3500 
L 3481 -1331 
L 2906 -1331 
L 2906 525 
z
" id="DejaVuSans-71" transform="scale(0.015625)"/>
       <path d="M 2834 3397 
L 2834 2853 
Q 2591 2978 2328 3040 
Q 2066 3103 1784 3103 
Q 1356 3103 1142 2972 
Q 928 2841 928 2578 
Q 928 2378 1081 2264 
Q 1234 2150 1697 2047 
L 1894 2003 
Q 2506 1872 2764 1633 
Q 3022 1394 3022 966 
Q 3022 478 2636 193 
Q 2250 -91 1575 -91 
Q 1294 -91 989 -36 
Q 684 19 347 128 
L 347 722 
Q 666 556 975 473 
Q 1284 391 1588 391 
Q 1994 391 2212 530 
Q 2431 669 2431 922 
Q 2431 1156 2273 1281 
Q 2116 1406 1581 1522 
L 1381 1569 
Q 847 1681 609 1914 
Q 372 2147 372 2553 
Q 372 3047 722 3315 
Q 1072 3584 1716 3584 
Q 2034 3584 2315 3537 
Q 2597 3491 2834 3397 
z
" id="DejaVuSans-73" transform="scale(0.015625)"/>
      </defs>
      <use xlink:href="#DejaVuSans-4e"/>
      <use x="74.804688" xlink:href="#DejaVuSans-75"/>
      <use x="138.183594" xlink:href="#DejaVuSans-6d"/>
      <use x="235.595703" xlink:href="#DejaVuSans-2e"/>
      <use x="267.382812" xlink:href="#DejaVuSans-20"/>
      <use x="299.169922" xlink:href="#DejaVuSans-53"/>
      <use x="362.646484" xlink:href="#DejaVuSans-75"/>
      <use x="426.025391" xlink:href="#DejaVuSans-70"/>
      <use x="489.501953" xlink:href="#DejaVuSans-2e"/>
      <use x="521.289062" xlink:href="#DejaVuSans-20"/>
      <use x="553.076172" xlink:href="#DejaVuSans-52"/>
      <use x="618.058594" xlink:href="#DejaVuSans-65"/>
      <use x="679.582031" xlink:href="#DejaVuSans-71"/>
      <use x="743.058594" xlink:href="#DejaVuSans-75"/>
      <use x="806.4375" xlink:href="#DejaVuSans-65"/>
      <use x="867.960938" xlink:href="#DejaVuSans-73"/>
      <use x="920.060547" xlink:href="#DejaVuSans-74"/>
      <use x="959.269531" xlink:href="#DejaVuSans-73"/>
     </g>
    </g>
   </g>
   <g id="line2d_43">
    <path clip-path="url(#p5308ede232)" d="M 63 212.487679 
L 95.55 199.490544 
L 128.1 186.49341 
L 160.65 173.496275 
L 193.2 159.777077 
L 225.75 151.834384 
L 258.3 134.504871 
L 290.85 133.060745 
L 323.4 121.507736 
L 355.95 94.791404 
L 388.5 81.794269 
L 421.05 68.797135 
L 453.6 55.8 
" style="fill:none;stroke:#0000ff;stroke-linecap:square;stroke-opacity:0.5;"/>
    <defs>
     <path d="M 0 3 
C 0.795609 3 1.55874 2.683901 2.12132 2.12132 
C 2.683901 1.55874 3 0.795609 3 0 
C 3 -0.795609 2.683901 -1.55874 2.12132 -2.12132 
C 1.55874 -2.683901 0.795609 -3 0 -3 
C -0.795609 -3 -1.55874 -2.683901 -2.12132 -2.12132 
C -2.683901 -1.55874 -3 -0.795609 -3 0 
C -3 0.795609 -2.683901 1.55874 -2.12132 2.12132 
C -1.55874 2.683901 -0.795609 3 0 3 
z
" id="m6ccc7b3709" style="stroke:#0000ff;stroke-opacity:0.5;"/>
    </defs>
    <g clip-path="url(#p5308ede232)">
     <use style="fill:#0000ff;fill-opacity:0.5;stroke:#0000ff;stroke-opacity:0.5;" x="63" xlink:href="#m6ccc7b3709" y="212.487679"/>
     <use style="fill:#0000ff;fill-opacity:0.5;stroke:#0000ff;stroke-opacity:0.5;" x="95.55" xlink:href="#m6ccc7b3709" y="199.490544"/>
     <use style="fill:#0000ff;fill-opacity:0.5;stroke:#0000ff;stroke-opacity:0.5;" x="128.1" xlink:href="#m6ccc7b3709" y="186.49341"/>
     <use style="fill:#0000ff;fill-opacity:0.5;stroke:#0000ff;stroke-opacity:0.5;" x="160.65" xlink:href="#m6ccc7b3709" y="173.496275"/>
     <use style="fill:#0000ff;fill-opacity:0.5;stroke:#0000ff;stroke-opacity:0.5;" x="193.2" xlink:href="#m6ccc7b3709" y="159.777077"/>
     <use style="fill:#0000ff;fill-opacity:0.5;stroke:#0000ff;stroke-opacity:0.5;" x="225.75" xlink:href="#m6ccc7b3709" y="151.834384"/>
     <use style="fill:#0000ff;fill-opacity:0.5;stroke:#0000ff;stroke-opacity:0.5;" x="258.3" xlink:href="#m6ccc7b3709" y="134.504871"/>
     <use style="fill:#0000ff;fill-opacity:0.5;stroke:#0000ff;stroke-opacity:0.5;" x="290.85" xlink:href="#m6ccc7b3709" y="133.060745"/>
     <use style="fill:#0000ff;fill-opacity:0.5;stroke:#0000ff;stroke-opacity:0.5;" x="323.4" xlink:href="#m6ccc7b3709" y="121.507736"/>
     <use style="fill:#0000ff;fill-opacity:0.5;stroke:#0000ff;stroke-opacity:0.5;" x="355.95" xlink:href="#m6ccc7b3709" y="94.791404"/>
     <use style="fill:#0000ff;fill-opacity:0.5;stroke:#0000ff;stroke-opacity:0.5;" x="388.5" xlink:href="#m6ccc7b3709" y="81.794269"/>
     <use style="fill:#0000ff;fill-opacity:0.5;stroke:#0000ff;stroke-opacity:0.5;" x="421.05" xlink:href="#m6ccc7b3709" y="68.797135"/>
     <use style="fill:#0000ff;fill-opacity:0.5;stroke:#0000ff;stroke-opacity:0.5;" x="453.6" xlink:href="#m6ccc7b3709" y="55.8"/>
    </g>
   </g>
   <g id="line2d_44">
    <path clip-path="url(#p5308ede232)" d="M 63 232.705444 
L 95.55 219.708309 
L 128.1 205.267049 
L 160.65 192.269914 
L 193.2 177.10659 
L 225.75 167.719771 
L 258.3 152.556447 
L 290.85 148.946132 
L 323.4 138.115186 
L 355.95 111.398854 
L 388.5 101.289971 
L 421.05 91.903152 
L 453.6 81.072206 
" style="fill:none;stroke:#ff0000;stroke-linecap:square;stroke-opacity:0.5;"/>
    <defs>
     <path d="M -1 3 
L 1 3 
L 1 1 
L 3 1 
L 3 -1 
L 1 -1 
L 1 -3 
L -1 -3 
L -1 -1 
L -3 -1 
L -3 1 
L -1 1 
z
" id="mffc5f8af0c" style="stroke:#ff0000;stroke-linejoin:miter;stroke-opacity:0.5;"/>
    </defs>
    <g clip-path="url(#p5308ede232)">
     <use style="fill:#ff0000;fill-opacity:0.5;stroke:#ff0000;stroke-linejoin:miter;stroke-opacity:0.5;" x="63" xlink:href="#mffc5f8af0c" y="232.705444"/>
     <use style="fill:#ff0000;fill-opacity:0.5;stroke:#ff0000;stroke-linejoin:miter;stroke-opacity:0.5;" x="95.55" xlink:href="#mffc5f8af0c" y="219.708309"/>
     <use style="fill:#ff0000;fill-opacity:0.5;stroke:#ff0000;stroke-linejoin:miter;stroke-opacity:0.5;" x="128.1" xlink:href="#mffc5f8af0c" y="205.267049"/>
     <use style="fill:#ff0000;fill-opacity:0.5;stroke:#ff0000;stroke-linejoin:miter;stroke-opacity:0.5;" x="160.65" xlink:href="#mffc5f8af0c" y="192.269914"/>
     <use style="fill:#ff0000;fill-opacity:0.5;stroke:#ff0000;stroke-linejoin:miter;stroke-opacity:0.5;" x="193.2" xlink:href="#mffc5f8af0c" y="177.10659"/>
     <use style="fill:#ff0000;fill-opacity:0.5;stroke:#ff0000;stroke-linejoin:miter;stroke-opacity:0.5;" x="225.75" xlink:href="#mffc5f8af0c" y="167.719771"/>
     <use style="fill:#ff0000;fill-opacity:0.5;stroke:#ff0000;stroke-linejoin:miter;stroke-opacity:0.5;" x="258.3" xlink:href="#mffc5f8af0c" y="152.556447"/>
     <use style="fill:#ff0000;fill-opacity:0.5;stroke:#ff0000;stroke-linejoin:miter;stroke-opacity:0.5;" x="290.85" xlink:href="#mffc5f8af0c" y="148.946132"/>
     <use style="fill:#ff0000;fill-opacity:0.5;stroke:#ff0000;stroke-linejoin:miter;stroke-opacity:0.5;" x="323.4" xlink:href="#mffc5f8af0c" y="138.115186"/>
     <use style="fill:#ff0000;fill-opacity:0.5;stroke:#ff0000;stroke-linejoin:miter;stroke-opacity:0.5;" x="355.95" xlink:href="#mffc5f8af0c" y="111.398854"/>
     <use style="fill:#ff0000;fill-opacity:0.5;stroke:#ff0000;stroke-linejoin:miter;stroke-opacity:0.5;" x="388.5" xlink:href="#mffc5f8af0c" y="101.289971"/>
     <use style="fill:#ff0000;fill-opacity:0.5;stroke:#ff0000;stroke-linejoin:miter;stroke-opacity:0.5;" x="421.05" xlink:href="#mffc5f8af0c" y="91.903152"/>
     <use style="fill:#ff0000;fill-opacity:0.5;stroke:#ff0000;stroke-linejoin:miter;stroke-opacity:0.5;" x="453.6" xlink:href="#mffc5f8af0c" y="81.072206"/>
    </g>
   </g>
   <g id="line2d_45">
    <path clip-path="url(#p5308ede232)" d="M 63 307.8 
L 95.55 307.8 
L 128.1 307.8 
L 160.65 307.8 
L 193.2 307.8 
L 225.75 307.8 
L 258.3 307.8 
L 290.85 307.8 
L 323.4 307.8 
L 355.95 307.8 
L 388.5 307.8 
L 421.05 307.8 
L 453.6 307.8 
" style="fill:none;stroke:#9400d3;stroke-linecap:square;stroke-opacity:0.5;"/>
    <defs>
     <path d="M 0 -3 
L -0.673542 -0.927051 
L -2.85317 -0.927051 
L -1.089814 0.354102 
L -1.763356 2.427051 
L -0 1.145898 
L 1.763356 2.427051 
L 1.089814 0.354102 
L 2.85317 -0.927051 
L 0.673542 -0.927051 
z
" id="mae1e9db29f" style="stroke:#9400d3;stroke-linejoin:bevel;stroke-opacity:0.5;"/>
    </defs>
    <g clip-path="url(#p5308ede232)">
     <use style="fill:#9400d3;fill-opacity:0.5;stroke:#9400d3;stroke-linejoin:bevel;stroke-opacity:0.5;" x="63" xlink:href="#mae1e9db29f" y="307.8"/>
     <use style="fill:#9400d3;fill-opacity:0.5;stroke:#9400d3;stroke-linejoin:bevel;stroke-opacity:0.5;" x="95.55" xlink:href="#mae1e9db29f" y="307.8"/>
     <use style="fill:#9400d3;fill-opacity:0.5;stroke:#9400d3;stroke-linejoin:bevel;stroke-opacity:0.5;" x="128.1" xlink:href="#mae1e9db29f" y="307.8"/>
     <use style="fill:#9400d3;fill-opacity:0.5;stroke:#9400d3;stroke-linejoin:bevel;stroke-opacity:0.5;" x="160.65" xlink:href="#mae1e9db29f" y="307.8"/>
     <use style="fill:#9400d3;fill-opacity:0.5;stroke:#9400d3;stroke-linejoin:bevel;stroke-opacity:0.5;" x="193.2" xlink:href="#mae1e9db29f" y="307.8"/>
     <use style="fill:#9400d3;fill-opacity:0.5;stroke:#9400d3;stroke-linejoin:bevel;stroke-opacity:0.5;" x="225.75" xlink:href="#mae1e9db29f" y="307.8"/>
     <use style="fill:#9400d3;fill-opacity:0.5;stroke:#9400d3;stroke-linejoin:bevel;stroke-opacity:0.5;" x="258.3" xlink:href="#mae1e9db29f" y="307.8"/>
     <use style="fill:#9400d3;fill-opacity:0.5;stroke:#9400d3;stroke-linejoin:bevel;stroke-opacity:0.5;" x="290.85" xlink:href="#mae1e9db29f" y="307.8"/>
     <use style="fill:#9400d3;fill-opacity:0.5;stroke:#9400d3;stroke-linejoin:bevel;stroke-opacity:0.5;" x="323.4" xlink:href="#mae1e9db29f" y="307.8"/>
     <use style="fill:#9400d3;fill-opacity:0.5;stroke:#9400d3;stroke-linejoin:bevel;stroke-opacity:0.5;" x="355.95" xlink:href="#mae1e9db29f" y="307.8"/>
     <use style="fill:#9400d3;fill-opacity:0.5;stroke:#9400d3;stroke-linejoin:bevel;stroke-opacity:0.5;" x="388.5" xlink:href="#mae1e9db29f" y="307.8"/>
     <use style="fill:#9400d3;fill-opacity:0.5;stroke:#9400d3;stroke-linejoin:bevel;stroke-opacity:0.5;" x="421.05" xlink:href="#mae1e9db29f" y="307.8"/>
     <use style="fill:#9400d3;fill-opacity:0.5;stroke:#9400d3;stroke-linejoin:bevel;stroke-opacity:0.5;" x="453.6" xlink:href="#mae1e9db29f" y="307.8"/>
    </g>
   </g>
   <g id="line2d_46">
    <path clip-path="url(#p5308ede232)" d="M 63 307.8 
L 95.55 307.8 
L 128.1 307.8 
L 160.65 307.8 
L 193.2 307.8 
L 225.75 307.8 
L 258.3 307.8 
L 290.85 307.8 
L 323.4 307.8 
L 355.95 307.8 
L 388.5 307.8 
L 421.05 307.8 
L 453.6 307.8 
" style="fill:none;stroke:#daa520;stroke-linecap:square;stroke-opacity:0.5;"/>
    <defs>
     <path d="M -3 3 
L 3 -3 
M -3 -3 
L 3 3 
" id="m033b23905b" style="stroke:#daa520;stroke-opacity:0.5;"/>
    </defs>
    <g clip-path="url(#p5308ede232)">
     <use style="fill:#daa520;fill-opacity:0.5;stroke:#daa520;stroke-opacity:0.5;" x="63" xlink:href="#m033b23905b" y="307.8"/>
     <use style="fill:#daa520;fill-opacity:0.5;stroke:#daa520;stroke-opacity:0.5;" x="95.55" xlink:href="#m033b23905b" y="307.8"/>
     <use style="fill:#daa520;fill-opacity:0.5;stroke:#daa520;stroke-opacity:0.5;" x="128.1" xlink:href="#m033b23905b" y="307.8"/>
     <use style="fill:#daa520;fill-opacity:0.5;stroke:#daa520;stroke-opacity:0.5;" x="160.65" xlink:href="#m033b23905b" y="307.8"/>
     <use style="fill:#daa520;fill-opacity:0.5;stroke:#daa520;stroke-opacity:0.5;" x="193.2" xlink:href="#m033b23905b" y="307.8"/>
     <use style="fill:#daa520;fill-opacity:0.5;stroke:#daa520;stroke-opacity:0.5;" x="225.75" xlink:href="#m033b23905b" y="307.8"/>
     <use style="fill:#daa520;fill-opacity:0.5;stroke:#daa520;stroke-opacity:0.5;" x="258.3" xlink:href="#m033b23905b" y="307.8"/>
     <use style="fill:#daa520;fill-opacity:0.5;stroke:#daa520;stroke-opacity:0.5;" x="290.85" xlink:href="#m033b23905b" y="307.8"/>
     <use style="fill:#daa520;fill-opacity:0.5;stroke:#daa520;stroke-opacity:0.5;" x="323.4" xlink:href="#m033b23905b" y="307.8"/>
     <use style="fill:#daa520;fill-opacity:0.5;stroke:#daa520;stroke-opacity:0.5;" x="355.95" xlink:href="#m033b23905b" y="307.8"/>
     <use style="fill:#daa520;fill-opacity:0.5;stroke:#daa520;stroke-opacity:0.5;" x="388.5" xlink:href="#m033b23905b" y="307.8"/>
     <use style="fill:#daa520;fill-opacity:0.5;stroke:#daa520;stroke-opacity:0.5;" x="421.05" xlink:href="#m033b23905b" y="307.8"/>
     <use style="fill:#daa520;fill-opacity:0.5;stroke:#daa520;stroke-opacity:0.5;" x="453.6" xlink:href="#m033b23905b" y="307.8"/>
    </g>
   </g>
   <g id="line2d_47">
    <path clip-path="url(#p5308ede232)" d="M 63 216.820057 
L 95.55 202.378797 
L 128.1 190.103725 
L 160.65 174.218338 
L 193.2 161.221203 
L 225.75 154.722636 
L 258.3 138.837249 
L 290.85 133.782808 
L 323.4 122.229799 
L 355.95 96.23553 
L 388.5 85.404585 
L 421.05 73.129513 
L 453.6 59.410315 
" style="fill:none;stroke:#008000;stroke-linecap:square;stroke-opacity:0.5;"/>
    <defs>
     <path d="M -0 3 
L 3 -3 
L -3 -3 
z
" id="m60e38dd3cf" style="stroke:#008000;stroke-linejoin:miter;stroke-opacity:0.5;"/>
    </defs>
    <g clip-path="url(#p5308ede232)">
     <use style="fill:#008000;fill-opacity:0.5;stroke:#008000;stroke-linejoin:miter;stroke-opacity:0.5;" x="63" xlink:href="#m60e38dd3cf" y="216.820057"/>
     <use style="fill:#008000;fill-opacity:0.5;stroke:#008000;stroke-linejoin:miter;stroke-opacity:0.5;" x="95.55" xlink:href="#m60e38dd3cf" y="202.378797"/>
     <use style="fill:#008000;fill-opacity:0.5;stroke:#008000;stroke-linejoin:miter;stroke-opacity:0.5;" x="128.1" xlink:href="#m60e38dd3cf" y="190.103725"/>
     <use style="fill:#008000;fill-opacity:0.5;stroke:#008000;stroke-linejoin:miter;stroke-opacity:0.5;" x="160.65" xlink:href="#m60e38dd3cf" y="174.218338"/>
     <use style="fill:#008000;fill-opacity:0.5;stroke:#008000;stroke-linejoin:miter;stroke-opacity:0.5;" x="193.2" xlink:href="#m60e38dd3cf" y="161.221203"/>
     <use style="fill:#008000;fill-opacity:0.5;stroke:#008000;stroke-linejoin:miter;stroke-opacity:0.5;" x="225.75" xlink:href="#m60e38dd3cf" y="154.722636"/>
     <use style="fill:#008000;fill-opacity:0.5;stroke:#008000;stroke-linejoin:miter;stroke-opacity:0.5;" x="258.3" xlink:href="#m60e38dd3cf" y="138.837249"/>
     <use style="fill:#008000;fill-opacity:0.5;stroke:#008000;stroke-linejoin:miter;stroke-opacity:0.5;" x="290.85" xlink:href="#m60e38dd3cf" y="133.782808"/>
     <use style="fill:#008000;fill-opacity:0.5;stroke:#008000;stroke-linejoin:miter;stroke-opacity:0.5;" x="323.4" xlink:href="#m60e38dd3cf" y="122.229799"/>
     <use style="fill:#008000;fill-opacity:0.5;stroke:#008000;stroke-linejoin:miter;stroke-opacity:0.5;" x="355.95" xlink:href="#m60e38dd3cf" y="96.23553"/>
     <use style="fill:#008000;fill-opacity:0.5;stroke:#008000;stroke-linejoin:miter;stroke-opacity:0.5;" x="388.5" xlink:href="#m60e38dd3cf" y="85.404585"/>
     <use style="fill:#008000;fill-opacity:0.5;stroke:#008000;stroke-linejoin:miter;stroke-opacity:0.5;" x="421.05" xlink:href="#m60e38dd3cf" y="73.129513"/>
     <use style="fill:#008000;fill-opacity:0.5;stroke:#008000;stroke-linejoin:miter;stroke-opacity:0.5;" x="453.6" xlink:href="#m60e38dd3cf" y="59.410315"/>
    </g>
   </g>
   <g id="patch_3">
    <path d="M 63 320.4 
L 63 43.2 
" style="fill:none;stroke:#000000;stroke-linecap:square;stroke-linejoin:miter;stroke-width:0.8;"/>
   </g>
   <g id="patch_4">
    <path d="M 453.6 320.4 
L 453.6 43.2 
" style="fill:none;stroke:#000000;stroke-linecap:square;stroke-linejoin:miter;stroke-width:0.8;"/>
   </g>
   <g id="patch_5">
    <path d="M 63 320.4 
L 453.6 320.4 
" style="fill:none;stroke:#000000;stroke-linecap:square;stroke-linejoin:miter;stroke-width:0.8;"/>
   </g>
   <g id="patch_6">
    <path d="M 63 43.2 
L 453.6 43.2 
" style="fill:none;stroke:#000000;stroke-linecap:square;stroke-linejoin:miter;stroke-width:0.8;"/>
   </g>
   <g id="legend_1">
    <g id="patch_7">
     <path d="M 354.96875 219.995313 
L 446.6 219.995313 
Q 448.6 219.995313 448.6 217.995313 
L 448.6 145.604688 
Q 448.6 143.604688 446.6 143.604688 
L 354.96875 143.604688 
Q 352.96875 143.604688 352.96875 145.604688 
L 352.96875 217.995313 
Q 352.96875 219.995313 354.96875 219.995313 
z
" style="fill:#ffffff;opacity:0.8;stroke:#cccccc;stroke-linejoin:miter;"/>
    </g>
    <g id="line2d_48">
     <path d="M 356.96875 151.703125 
L 376.96875 151.703125 
" style="fill:none;stroke:#0000ff;stroke-linecap:square;stroke-opacity:0.5;"/>
    </g>
    <g id="line2d_49">
     <g>
      <use style="fill:#0000ff;fill-opacity:0.5;stroke:#0000ff;stroke-opacity:0.5;" x="366.96875" xlink:href="#m6ccc7b3709" y="151.703125"/>
     </g>
    </g>
    <g id="text_24">
     <!-- WF-CCRA -->
     <g transform="translate(384.96875 155.203125)scale(0.1 -0.1)">
      <defs>
       <path d="M 213 4666 
L 850 4666 
L 1831 722 
L 2809 4666 
L 3519 4666 
L 4500 722 
L 5478 4666 
L 6119 4666 
L 4947 0 
L 4153 0 
L 3169 4050 
L 2175 0 
L 1381 0 
L 213 4666 
z
" id="DejaVuSans-57" transform="scale(0.015625)"/>
       <path d="M 628 4666 
L 3309 4666 
L 3309 4134 
L 1259 4134 
L 1259 2759 
L 3109 2759 
L 3109 2228 
L 1259 2228 
L 1259 0 
L 628 0 
L 628 4666 
z
" id="DejaVuSans-46" transform="scale(0.015625)"/>
       <path d="M 313 2009 
L 1997 2009 
L 1997 1497 
L 313 1497 
L 313 2009 
z
" id="DejaVuSans-2d" transform="scale(0.015625)"/>
       <path d="M 4122 4306 
L 4122 3641 
Q 3803 3938 3442 4084 
Q 3081 4231 2675 4231 
Q 1875 4231 1450 3742 
Q 1025 3253 1025 2328 
Q 1025 1406 1450 917 
Q 1875 428 2675 428 
Q 3081 428 3442 575 
Q 3803 722 4122 1019 
L 4122 359 
Q 3791 134 3420 21 
Q 3050 -91 2638 -91 
Q 1578 -91 968 557 
Q 359 1206 359 2328 
Q 359 3453 968 4101 
Q 1578 4750 2638 4750 
Q 3056 4750 3426 4639 
Q 3797 4528 4122 4306 
z
" id="DejaVuSans-43" transform="scale(0.015625)"/>
       <path d="M 2188 4044 
L 1331 1722 
L 3047 1722 
L 2188 4044 
z
M 1831 4666 
L 2547 4666 
L 4325 0 
L 3669 0 
L 3244 1197 
L 1141 1197 
L 716 0 
L 50 0 
L 1831 4666 
z
" id="DejaVuSans-41" transform="scale(0.015625)"/>
      </defs>
      <use xlink:href="#DejaVuSans-57"/>
      <use x="98.876953" xlink:href="#DejaVuSans-46"/>
      <use x="156.396484" xlink:href="#DejaVuSans-2d"/>
      <use x="192.480469" xlink:href="#DejaVuSans-43"/>
      <use x="262.304688" xlink:href="#DejaVuSans-43"/>
      <use x="332.128906" xlink:href="#DejaVuSans-52"/>
      <use x="397.611328" xlink:href="#DejaVuSans-41"/>
     </g>
    </g>
    <g id="line2d_50">
     <path d="M 356.96875 166.38125 
L 376.96875 166.38125 
" style="fill:none;stroke:#ff0000;stroke-linecap:square;stroke-opacity:0.5;"/>
    </g>
    <g id="line2d_51">
     <g>
      <use style="fill:#ff0000;fill-opacity:0.5;stroke:#ff0000;stroke-linejoin:miter;stroke-opacity:0.5;" x="366.96875" xlink:href="#mffc5f8af0c" y="166.38125"/>
     </g>
    </g>
    <g id="text_25">
     <!-- R-CCRA -->
     <g transform="translate(384.96875 169.88125)scale(0.1 -0.1)">
      <use xlink:href="#DejaVuSans-52"/>
      <use x="65.482422" xlink:href="#DejaVuSans-2d"/>
      <use x="101.566406" xlink:href="#DejaVuSans-43"/>
      <use x="171.390625" xlink:href="#DejaVuSans-43"/>
      <use x="241.214844" xlink:href="#DejaVuSans-52"/>
      <use x="306.697266" xlink:href="#DejaVuSans-41"/>
     </g>
    </g>
    <g id="line2d_52">
     <path d="M 356.96875 181.059375 
L 376.96875 181.059375 
" style="fill:none;stroke:#9400d3;stroke-linecap:square;stroke-opacity:0.5;"/>
    </g>
    <g id="line2d_53">
     <g>
      <use style="fill:#9400d3;fill-opacity:0.5;stroke:#9400d3;stroke-linejoin:bevel;stroke-opacity:0.5;" x="366.96875" xlink:href="#mae1e9db29f" y="181.059375"/>
     </g>
    </g>
    <g id="text_26">
     <!-- CM-CCRA -->
     <g transform="translate(384.96875 184.559375)scale(0.1 -0.1)">
      <defs>
       <path d="M 628 4666 
L 1569 4666 
L 2759 1491 
L 3956 4666 
L 4897 4666 
L 4897 0 
L 4281 0 
L 4281 4097 
L 3078 897 
L 2444 897 
L 1241 4097 
L 1241 0 
L 628 0 
L 628 4666 
z
" id="DejaVuSans-4d" transform="scale(0.015625)"/>
      </defs>
      <use xlink:href="#DejaVuSans-43"/>
      <use x="69.824219" xlink:href="#DejaVuSans-4d"/>
      <use x="156.103516" xlink:href="#DejaVuSans-2d"/>
      <use x="192.1875" xlink:href="#DejaVuSans-43"/>
      <use x="262.011719" xlink:href="#DejaVuSans-43"/>
      <use x="331.835938" xlink:href="#DejaVuSans-52"/>
      <use x="397.318359" xlink:href="#DejaVuSans-41"/>
     </g>
    </g>
    <g id="line2d_54">
     <path d="M 356.96875 195.7375 
L 376.96875 195.7375 
" style="fill:none;stroke:#daa520;stroke-linecap:square;stroke-opacity:0.5;"/>
    </g>
    <g id="line2d_55">
     <g>
      <use style="fill:#daa520;fill-opacity:0.5;stroke:#daa520;stroke-opacity:0.5;" x="366.96875" xlink:href="#m033b23905b" y="195.7375"/>
     </g>
    </g>
    <g id="text_27">
     <!-- DM-CCRA -->
     <g transform="translate(384.96875 199.2375)scale(0.1 -0.1)">
      <defs>
       <path d="M 1259 4147 
L 1259 519 
L 2022 519 
Q 2988 519 3436 956 
Q 3884 1394 3884 2338 
Q 3884 3275 3436 3711 
Q 2988 4147 2022 4147 
L 1259 4147 
z
M 628 4666 
L 1925 4666 
Q 3281 4666 3915 4102 
Q 4550 3538 4550 2338 
Q 4550 1131 3912 565 
Q 3275 0 1925 0 
L 628 0 
L 628 4666 
z
" id="DejaVuSans-44" transform="scale(0.015625)"/>
      </defs>
      <use xlink:href="#DejaVuSans-44"/>
      <use x="77.001953" xlink:href="#DejaVuSans-4d"/>
      <use x="163.28125" xlink:href="#DejaVuSans-2d"/>
      <use x="199.365234" xlink:href="#DejaVuSans-43"/>
      <use x="269.189453" xlink:href="#DejaVuSans-43"/>
      <use x="339.013672" xlink:href="#DejaVuSans-52"/>
      <use x="404.496094" xlink:href="#DejaVuSans-41"/>
     </g>
    </g>
    <g id="line2d_56">
     <path d="M 356.96875 210.415625 
L 376.96875 210.415625 
" style="fill:none;stroke:#008000;stroke-linecap:square;stroke-opacity:0.5;"/>
    </g>
    <g id="line2d_57">
     <g>
      <use style="fill:#008000;fill-opacity:0.5;stroke:#008000;stroke-linejoin:miter;stroke-opacity:0.5;" x="366.96875" xlink:href="#m60e38dd3cf" y="210.415625"/>
     </g>
    </g>
    <g id="text_28">
     <!-- DDQL-CCRA -->
     <g transform="translate(384.96875 213.915625)scale(0.1 -0.1)">
      <defs>
       <path d="M 2522 4238 
Q 1834 4238 1429 3725 
Q 1025 3213 1025 2328 
Q 1025 1447 1429 934 
Q 1834 422 2522 422 
Q 3209 422 3611 934 
Q 4013 1447 4013 2328 
Q 4013 3213 3611 3725 
Q 3209 4238 2522 4238 
z
M 3406 84 
L 4238 -825 
L 3475 -825 
L 2784 -78 
Q 2681 -84 2626 -87 
Q 2572 -91 2522 -91 
Q 1538 -91 948 567 
Q 359 1225 359 2328 
Q 359 3434 948 4092 
Q 1538 4750 2522 4750 
Q 3503 4750 4090 4092 
Q 4678 3434 4678 2328 
Q 4678 1516 4351 937 
Q 4025 359 3406 84 
z
" id="DejaVuSans-51" transform="scale(0.015625)"/>
       <path d="M 628 4666 
L 1259 4666 
L 1259 531 
L 3531 531 
L 3531 0 
L 628 0 
L 628 4666 
z
" id="DejaVuSans-4c" transform="scale(0.015625)"/>
      </defs>
      <use xlink:href="#DejaVuSans-44"/>
      <use x="77.001953" xlink:href="#DejaVuSans-44"/>
      <use x="154.003906" xlink:href="#DejaVuSans-51"/>
      <use x="232.714844" xlink:href="#DejaVuSans-4c"/>
      <use x="286.677734" xlink:href="#DejaVuSans-2d"/>
      <use x="322.761719" xlink:href="#DejaVuSans-43"/>
      <use x="392.585938" xlink:href="#DejaVuSans-43"/>
      <use x="462.410156" xlink:href="#DejaVuSans-52"/>
      <use x="527.892578" xlink:href="#DejaVuSans-41"/>
     </g>
    </g>
   </g>
  </g>
 </g>
 <defs>
  <clipPath id="p5308ede232">
   <rect height="277.2" width="390.6" x="63" y="43.2"/>
  </clipPath>
 </defs>
</svg>
